<?xml version="1.0" encoding="iso-8859-1"?>
<!-- Uploaded to: SVG Repo, www.svgrepo.com, Generator: SVG Repo Mixer Tools -->
<svg height="800px" width="800px" version="1.1" id="Layer_1" xmlns="http://www.w3.org/2000/svg" xmlns:xlink="http://www.w3.org/1999/xlink" 
	 viewBox="0 0 512 512" xml:space="preserve">
<path style="fill:#7C3632;" d="M380.596,215.549c49.991-77.361,169.409-2.312,119.423,75.044
	c-53.26,82.403-144.846,132.364-244.018,132.364S65.248,372.996,11.981,290.592c-49.986-77.355,69.435-152.403,119.426-75.044
	c27.174,42.042,74.095,67.18,124.593,67.18C306.501,282.729,353.425,257.59,380.596,215.549L380.596,215.549z"/>
<path style="fill:#633630;" d="M475.271,228.845c-1.706,4.532-3.903,9.104-6.675,13.684
	c-49.88,82.404-135.654,132.365-228.533,132.365S61.415,324.932,11.53,242.528c-2.771-4.579-4.969-9.149-6.675-13.682
	c17.993-45.887,84.961-68.753,118.522-13.298c25.45,42.042,69.394,67.18,116.686,67.18c47.295,0,91.242-25.138,116.689-67.18
	C390.313,160.094,457.277,182.958,475.271,228.845z"/>
<path style="fill:#B93B3E;" d="M380.596,121.573c49.991-77.361,169.409-2.312,119.423,75.044
	c-53.26,82.404-144.846,132.365-244.018,132.365S65.248,279.021,11.981,196.616c-49.986-77.355,69.435-152.403,119.426-75.044
	c27.174,42.042,74.095,67.18,124.593,67.18C306.501,188.753,353.425,163.615,380.596,121.573L380.596,121.573z"/>
<path style="fill:#9D3632;" d="M500.019,196.616c-53.26,82.404-144.846,132.365-244.018,132.365S65.248,279.021,11.981,196.616
	c-24.833-38.431-7.847-76.284,21.659-95.17c-1.119,13.71,1.757,28.591,10.17,43.562c46.318,82.404,125.954,132.365,212.191,132.365
	s165.877-49.961,212.19-132.365c8.412-14.973,11.288-29.853,10.17-43.563C507.867,120.332,524.853,158.185,500.019,196.616z"/>
<path style="fill:#EDD7C5;" d="M80.704,179.519c3.686,4.886,2.687,11.818-2.232,15.481c-2.001,1.49-4.344,2.209-6.666,2.209
	c-3.386,0-6.728-1.528-8.915-4.427c-1.634-2.167-3.243-4.384-4.783-6.59c-3.504-5.019-2.249-11.908,2.803-15.389
	c5.052-3.482,11.986-2.234,15.489,2.784C77.784,175.571,79.233,177.567,80.704,179.519z M256.001,263.679
	c-48.347,0-95.694-15.222-133.32-42.861c-4.943-3.631-11.913-2.594-15.567,2.317c-3.654,4.911-2.61,11.835,2.333,15.467
	c41.43,30.433,93.477,47.194,146.554,47.194c6.147,0,11.13-4.952,11.13-11.059C267.131,268.629,262.148,263.679,256.001,263.679z"/>
</svg>